<?xml version="1.0" encoding="utf-8"?>
<!-- created with bpmn-js / http://bpmn.io -->
<!DOCTYPE svg PUBLIC "-//W3C//DTD SVG 1.1//EN" "http://www.w3.org/Graphics/SVG/1.1/DTD/svg11.dtd">
<svg xmlns="http://www.w3.org/2000/svg" xmlns:xlink="http://www.w3.org/1999/xlink" width="419.47882080078125" height="210" viewBox="18 8.817460060119629 419.47882080078125 210" version="1.1"><defs><marker id="sequenceflow-end-white-black" viewBox="0 0 20 20" refX="11" refY="10" markerWidth="10" markerHeight="10" orient="auto"><path d="M 1 5 L 11 10 L 1 15 Z" style="fill: black; stroke-width: 1px; stroke-linecap: round; stroke-dasharray: 10000, 1; stroke: black;"/></marker><marker id="sequenceflow-end-#FFE0B2-#FB8C00" viewBox="0 0 20 20" refX="11" refY="10" markerWidth="10" markerHeight="10" orient="auto"><path d="M 1 5 L 11 10 L 1 15 Z" style="fill: rgb(251, 140, 0); stroke-width: 1px; stroke-linecap: round; stroke-dasharray: 10000, 1; stroke: rgb(251, 140, 0);"/></marker></defs><g class="djs-group"><g class="djs-element djs-shape" data-element-id="StartEvent_1" style="display: block;" transform="translate(24 99)"><g class="djs-visual"><circle cx="18" cy="18" r="18" style="stroke: rgb(142, 36, 170); stroke-width: 2px; fill: rgb(225, 190, 231);"/></g><rect x="0" y="0" width="36" height="36" class="djs-hit" style="fill: none; stroke-opacity: 0; stroke: white; stroke-width: 15px;"/><rect x="-6" y="-6" width="48" height="48" class="djs-outline" style="fill: none;"/></g></g><g class="djs-group"><g class="djs-element djs-shape" data-element-id="ExclusiveGateway_0wtiz8v" style="display: block;" transform="translate(104.479 92)"><g class="djs-visual"><polygon points="25,0 50,25 25,50 0,25" style="stroke: rgb(30, 136, 229); stroke-width: 2px; fill: rgb(187, 222, 251);"/></g><rect x="0" y="0" width="50" height="50" class="djs-hit" style="fill: none; stroke-opacity: 0; stroke: white; stroke-width: 15px;"/><rect x="-6" y="-6" width="62" height="62" class="djs-outline" style="fill: none;"/></g></g><g class="djs-group"><g class="djs-element djs-shape" data-element-id="Task_0cpdc9g" style="display: block;" transform="translate(178.479 14.8175)"><g class="djs-visual"><rect x="0" y="0" width="100" height="80" rx="10" ry="10" style="stroke: rgb(67, 160, 71); stroke-width: 2px; fill: rgb(200, 230, 201);"/><text class="djs-label" style="font-family: Arial, sans-serif; font-size: 12px; fill: rgb(67, 160, 71);"><tspan x="50" y="43.5"/></text></g><rect x="0" y="0" width="100" height="80" class="djs-hit" style="fill: none; stroke-opacity: 0; stroke: white; stroke-width: 15px;"/><rect x="-6" y="-6" width="112" height="92" class="djs-outline" style="fill: none;"/></g></g><g class="djs-group"><g class="djs-element djs-shape" data-element-id="Task_12k4xjy" style="display: block;" transform="translate(178 132.817)"><g class="djs-visual"><rect x="0" y="0" width="100" height="80" rx="10" ry="10" style="stroke: rgb(67, 160, 71); stroke-width: 2px; fill: rgb(200, 230, 201);"/><text class="djs-label" style="font-family: Arial, sans-serif; font-size: 12px; fill: rgb(67, 160, 71);"><tspan x="50" y="43.5"/></text></g><rect x="0" y="0" width="100" height="80" class="djs-hit" style="fill: none; stroke-opacity: 0; stroke: white; stroke-width: 15px;"/><rect x="-6" y="-6" width="112" height="92" class="djs-outline" style="fill: none;"/></g></g><g class="djs-group"><g class="djs-element djs-shape" data-element-id="ExclusiveGateway_1xu6mdz" style="display: block;" transform="translate(301.479 92)"><g class="djs-visual"><polygon points="25,0 50,25 25,50 0,25" style="stroke: rgb(30, 136, 229); stroke-width: 2px; fill: rgb(187, 222, 251);"/></g><rect x="0" y="0" width="50" height="50" class="djs-hit" style="fill: none; stroke-opacity: 0; stroke: white; stroke-width: 15px;"/><rect x="-6" y="-6" width="62" height="62" class="djs-outline" style="fill: none;"/></g></g><g class="djs-group"><g class="djs-element djs-shape" data-element-id="EndEvent_0ymrbyz" style="display: block;" transform="translate(395.479 99)"><g class="djs-visual"><circle cx="18" cy="18" r="18" style="stroke: rgb(142, 36, 170); stroke-width: 4px; fill: rgb(225, 190, 231);"/></g><rect x="0" y="0" width="36" height="36" class="djs-hit" style="fill: none; stroke-opacity: 0; stroke: white; stroke-width: 15px;"/><rect x="-6" y="-6" width="48" height="48" class="djs-outline" style="fill: none;"/></g></g><g class="djs-group"><g class="djs-element djs-connection" data-element-id="SequenceFlow_0ombkx4" style="display: block;"><g class="djs-visual"><path d="m  60,117L104,117 " style="fill: none; stroke-width: 2px; stroke: rgb(251, 140, 0); stroke-linejoin: round; marker-end: url('#sequenceflow-end-#FFE0B2-#FB8C00');"/></g><polyline points="60,117 104,117 " class="djs-hit" style="fill: none; stroke-opacity: 0; stroke: white; stroke-width: 15px;"/><rect x="54" y="111" width="56" height="12" class="djs-outline" style="fill: none;"/></g></g><g class="djs-group"><g class="djs-element djs-connection" data-element-id="SequenceFlow_0g6n1na" style="display: block;"><g class="djs-visual"><path d="m  129,92L129,55 L178,55 " style="fill: none; stroke-width: 2px; stroke: rgb(251, 140, 0); stroke-linejoin: round; marker-end: url('#sequenceflow-end-#FFE0B2-#FB8C00');"/></g><polyline points="129,92 129,55 178,55 " class="djs-hit" style="fill: none; stroke-opacity: 0; stroke: white; stroke-width: 15px;"/><rect x="123" y="49" width="61" height="49" class="djs-outline" style="fill: none;"/></g></g><g class="djs-group"><g class="djs-element djs-connection" data-element-id="SequenceFlow_01wbgv0" style="display: block;"><g class="djs-visual"><path d="m  129,142L129,173 L178,173 " style="fill: none; stroke-width: 2px; stroke: rgb(251, 140, 0); stroke-linejoin: round; marker-end: url('#sequenceflow-end-#FFE0B2-#FB8C00');"/></g><polyline points="129,142 129,173 178,173 " class="djs-hit" style="fill: none; stroke-opacity: 0; stroke: white; stroke-width: 15px;"/><rect x="123" y="136" width="61" height="43" class="djs-outline" style="fill: none;"/></g></g><g class="djs-group"><g class="djs-element djs-connection" data-element-id="SequenceFlow_12jg1ec" style="display: block;"><g class="djs-visual"><path d="m  278,55L326,55 L326,92 " style="fill: none; stroke-width: 2px; stroke: rgb(251, 140, 0); stroke-linejoin: round; marker-end: url('#sequenceflow-end-#FFE0B2-#FB8C00');"/></g><polyline points="278,55 326,55 326,92 " class="djs-hit" style="fill: none; stroke-opacity: 0; stroke: white; stroke-width: 15px;"/><rect x="272" y="49" width="60" height="49" class="djs-outline" style="fill: none;"/></g></g><g class="djs-group"><g class="djs-element djs-connection" data-element-id="SequenceFlow_1sp6esp" style="display: block;"><g class="djs-visual"><path d="m  278,173L326,173 L326,142 " style="fill: none; stroke-width: 2px; stroke: rgb(251, 140, 0); stroke-linejoin: round; marker-end: url('#sequenceflow-end-#FFE0B2-#FB8C00');"/></g><polyline points="278,173 326,173 326,142 " class="djs-hit" style="fill: none; stroke-opacity: 0; stroke: white; stroke-width: 15px;"/><rect x="272" y="136" width="60" height="43" class="djs-outline" style="fill: none;"/></g></g><g class="djs-group"><g class="djs-element djs-connection" data-element-id="SequenceFlow_1wv1cvo" style="display: block;"><g class="djs-visual"><path d="m  351,117L396,117 " style="fill: none; stroke-width: 2px; stroke: rgb(251, 140, 0); stroke-linejoin: round; marker-end: url('#sequenceflow-end-#FFE0B2-#FB8C00');"/></g><polyline points="351,117 396,117 " class="djs-hit" style="fill: none; stroke-opacity: 0; stroke: white; stroke-width: 15px;"/><rect x="345" y="111" width="57" height="12" class="djs-outline" style="fill: none;"/></g></g></svg>
