<?xml version="1.0" encoding="utf-8"?>
<!-- created with bpmn-js / http://bpmn.io -->
<!DOCTYPE svg PUBLIC "-//W3C//DTD SVG 1.1//EN" "http://www.w3.org/Graphics/SVG/1.1/DTD/svg11.dtd">
<svg xmlns="http://www.w3.org/2000/svg" xmlns:xlink="http://www.w3.org/1999/xlink" width="655" height="541" viewBox="64 132 655 541" version="1.1"><defs><marker id="sequenceflow-end-white-black" viewBox="0 0 20 20" refX="11" refY="10" markerWidth="10" markerHeight="10" orient="auto"><path d="M 1 5 L 11 10 L 1 15 Z" style="fill: black; stroke-width: 1px; stroke-linecap: round; stroke-dasharray: 10000, 1; stroke: black;"></path></marker><marker id="messageflow-end-white-black" viewBox="0 0 20 20" refX="8.5" refY="5" markerWidth="20" markerHeight="20" orient="auto"><path d="m 1 5 l 0 -3 l 7 3 l -7 3 z" style="fill: white; stroke-width: 1px; stroke-linecap: butt; stroke-dasharray: 10000, 1; stroke: black;"></path></marker><marker id="messageflow-start-white-black" viewBox="0 0 20 20" refX="6" refY="6" markerWidth="20" markerHeight="20" orient="auto"><circle cx="6" cy="6" r="3.5" style="fill: white; stroke-width: 1px; stroke-linecap: round; stroke-dasharray: 10000, 1; stroke: black;"></circle></marker></defs><g class="djs-group"><g class="djs-element djs-shape" data-element-id="Participant_0c9r19c" style="display: block;" transform="translate(70 240)"><g class="djs-visual"><rect x="0" y="0" width="642" height="254" rx="0" ry="0" style="stroke: black; stroke-width: 2px; fill: white; fill-opacity: 0.95;"/><polyline points="30,0 30,254 " style="fill: none; stroke: black; stroke-width: 2px;"/><text class="djs-label" style="font-family: Arial, sans-serif; font-size: 12px; fill: black;" transform="matrix(-1.83697e-16 -1 1 -1.83697e-16 0 254)"><tspan x="59.609375" y="18.5">Abteilung Kundensupport</tspan></text></g><rect x="0" y="0" width="642" height="254" class="djs-hit" style="fill: none; stroke-opacity: 0; stroke: white; stroke-width: 15px;"/><rect x="-6" y="-6" width="654" height="266" class="djs-outline" style="fill: none;"/></g><g class="djs-children"><g class="djs-group"><g class="djs-element djs-shape" data-element-id="Lane_0odiug3" style="display: block;" transform="translate(100 240)"><g class="djs-visual"><rect x="0" y="0" width="612" height="125" rx="0" ry="0" style="stroke: black; stroke-width: 2px; fill: white;"/><text class="djs-label" style="font-family: Arial, sans-serif; font-size: 12px; fill: black;" transform="matrix(-1.83697e-16 -1 1 -1.83697e-16 0 125)"><tspan x="37.15625" y="18.5">Telefonist</tspan></text></g><rect x="0" y="0" width="612" height="125" class="djs-hit" style="fill: none; stroke-opacity: 0; stroke: white; stroke-width: 15px;"/><rect x="-6" y="-6" width="624" height="137" class="djs-outline" style="fill: none;"/></g></g><g class="djs-group"><g class="djs-element djs-shape" data-element-id="Lane_0ybu1en" style="display: block;" transform="translate(100 365)"><g class="djs-visual"><rect x="0" y="0" width="612" height="129" rx="0" ry="0" style="stroke: black; stroke-width: 2px; fill: white;"/><text class="djs-label" style="font-family: Arial, sans-serif; font-size: 12px; fill: black;" transform="matrix(-1.83697e-16 -1 1 -1.83697e-16 0 129)"><tspan x="38.7421875" y="18.5">Techniker</tspan></text></g><rect x="0" y="0" width="612" height="129" class="djs-hit" style="fill: none; stroke-opacity: 0; stroke: white; stroke-width: 15px;"/><rect x="-6" y="-6" width="624" height="141" class="djs-outline" style="fill: none;"/></g></g><g class="djs-group"><g class="djs-element djs-shape" data-element-id="Task_0rdabup" style="display: block;" transform="translate(292 257)"><g class="djs-visual"><rect x="0" y="0" width="100" height="80" rx="10" ry="10" style="stroke: black; stroke-width: 2px; fill: white;"/><text class="djs-label" style="font-family: Arial, sans-serif; font-size: 12px; fill: black;"><tspan x="18.6484375" y="29.5">Meldung an </tspan><tspan x="17.6484375" y="43.5">zuständigen </tspan><tspan x="19.65625" y="57.5">weiterleiten</tspan></text></g><rect x="0" y="0" width="100" height="80" class="djs-hit" style="fill: none; stroke-opacity: 0; stroke: white; stroke-width: 15px;"/><rect x="-6" y="-6" width="112" height="92" class="djs-outline" style="fill: none;"/></g></g><g class="djs-group"><g class="djs-element djs-shape" data-element-id="Task_1o2yn4o" style="display: block;" transform="translate(292 388)"><g class="djs-visual"><rect x="0" y="0" width="100" height="80" rx="10" ry="10" style="stroke: black; stroke-width: 2px; fill: white;"/><text class="djs-label" style="font-family: Arial, sans-serif; font-size: 12px; fill: black;"><tspan x="27.6640625" y="36.5">Problem </tspan><tspan x="26.6484375" y="50.5">beheben</tspan></text></g><rect x="0" y="0" width="100" height="80" class="djs-hit" style="fill: none; stroke-opacity: 0; stroke: white; stroke-width: 15px;"/><rect x="-6" y="-6" width="112" height="92" class="djs-outline" style="fill: none;"/></g></g><g class="djs-group"><g class="djs-element djs-shape" data-element-id="SequenceFlow_0143nk0_label" style="display: none;" transform="translate(357 355.5)"><g class="djs-visual"><text class="djs-label" style="font-family: Arial, sans-serif; font-size: 11px;"><tspan x="0" y="12.3125"/></text></g><rect x="0" y="0" width="0" height="13" class="djs-hit" style="fill: none; stroke-opacity: 0; stroke: white; stroke-width: 15px;"/><rect x="-6" y="-6" width="12" height="25" class="djs-outline" style="fill: none;"/></g></g><g class="djs-group"><g class="djs-element djs-shape" data-element-id="IntermediateThrowEvent_1a19dk9" style="display: block;" transform="translate(436 410)"><g class="djs-visual"><circle cx="18" cy="18" r="18" style="stroke: black; stroke-width: 1px; fill: white;"/><circle cx="18" cy="18" r="15" style="stroke: black; stroke-width: 1px; fill: none;"/><path d="m 8.459999999999999,11.34 l 0,12.6 l 18.900000000000002,0 l 0,-12.6 z l 9.450000000000001,5.4 l 9.450000000000001,-5.4" style="fill: black; stroke-width: 1px; stroke: white;"/></g><rect x="0" y="0" width="36" height="36" class="djs-hit" style="fill: none; stroke-opacity: 0; stroke: white; stroke-width: 15px;"/><rect x="-6" y="-6" width="48" height="48" class="djs-outline" style="fill: none;"/></g></g><g class="djs-group"><g class="djs-element djs-shape" data-element-id="EndEvent_0sg495w" style="display: block;" transform="translate(657 410)"><g class="djs-visual"><circle cx="18" cy="18" r="18" style="stroke: black; stroke-width: 4px; fill: white;"/></g><rect x="0" y="0" width="36" height="36" class="djs-hit" style="fill: none; stroke-opacity: 0; stroke: white; stroke-width: 15px;"/><rect x="-6" y="-6" width="48" height="48" class="djs-outline" style="fill: none;"/></g></g><g class="djs-group"><g class="djs-element djs-shape" data-element-id="StartEvent_1" style="display: block;" transform="translate(187 279)"><g class="djs-visual"><circle cx="18" cy="18" r="18" style="stroke: black; stroke-width: 2px; fill: white;"/><path d="m 8.459999999999999,11.34 l 0,12.6 l 18.900000000000002,0 l 0,-12.6 z l 9.450000000000001,5.4 l 9.450000000000001,-5.4" style="fill: white; stroke-width: 1px; stroke: black;"/></g><rect x="0" y="0" width="36" height="36" class="djs-hit" style="fill: none; stroke-opacity: 0; stroke: white; stroke-width: 15px;"/><rect x="-6" y="-6" width="48" height="48" class="djs-outline" style="fill: none;"/></g></g><g class="djs-group"><g class="djs-element djs-shape" data-element-id="IntermediateThrowEvent_0yjoxue" style="display: block;" transform="translate(538 410)"><g class="djs-visual"><circle cx="18" cy="18" r="18" style="stroke: black; stroke-width: 1px; fill: white;"/><circle cx="18" cy="18" r="15" style="stroke: black; stroke-width: 1px; fill: none;"/><path d="m 8.459999999999999,11.34 l 0,12.6 l 18.900000000000002,0 l 0,-12.6 z l 9.450000000000001,5.4 l 9.450000000000001,-5.4" style="fill: black; stroke-width: 1px; stroke: white;"/></g><rect x="0" y="0" width="36" height="36" class="djs-hit" style="fill: none; stroke-opacity: 0; stroke: white; stroke-width: 15px;"/><rect x="-6" y="-6" width="48" height="48" class="djs-outline" style="fill: none;"/></g></g><g class="djs-group"><g class="djs-element djs-connection" data-element-id="SequenceFlow_0pke92j" style="display: block;"><g class="djs-visual"><path d="m  223,297L292,297 " style="fill: none; stroke-width: 2px; stroke: black; stroke-linejoin: round; marker-end: url('#sequenceflow-end-white-black');"/></g><polyline points="223,297 292,297 " class="djs-hit" style="fill: none; stroke-opacity: 0; stroke: white; stroke-width: 15px;"/><rect x="217" y="291" width="81" height="12" class="djs-outline" style="fill: none;"/></g></g><g class="djs-group"><g class="djs-element djs-connection" data-element-id="SequenceFlow_0143nk0" style="display: block;"><g class="djs-visual"><path d="m  342,337L342,388 " style="fill: none; stroke-width: 2px; stroke: black; stroke-linejoin: round; marker-end: url('#sequenceflow-end-white-black');"/></g><polyline points="342,337 342,388 " class="djs-hit" style="fill: none; stroke-opacity: 0; stroke: white; stroke-width: 15px;"/><rect x="336" y="331" width="12" height="63" class="djs-outline" style="fill: none;"/></g></g><g class="djs-group"><g class="djs-element djs-connection" data-element-id="SequenceFlow_0n4qnqn" style="display: block;"><g class="djs-visual"><path d="m  392,428L436,428 " style="fill: none; stroke-width: 2px; stroke: black; stroke-linejoin: round; marker-end: url('#sequenceflow-end-white-black');"/></g><polyline points="392,428 436,428 " class="djs-hit" style="fill: none; stroke-opacity: 0; stroke: white; stroke-width: 15px;"/><rect x="386" y="422" width="56" height="12" class="djs-outline" style="fill: none;"/></g></g><g class="djs-group"><g class="djs-element djs-connection" data-element-id="SequenceFlow_008x19t" style="display: block;"><g class="djs-visual"><path d="m  472,428L538,428 " style="fill: none; stroke-width: 2px; stroke: black; stroke-linejoin: round; marker-end: url('#sequenceflow-end-white-black');"/></g><polyline points="472,428 538,428 " class="djs-hit" style="fill: none; stroke-opacity: 0; stroke: white; stroke-width: 15px;"/><rect x="466" y="422" width="78" height="12" class="djs-outline" style="fill: none;"/></g></g><g class="djs-group"><g class="djs-element djs-connection" data-element-id="SequenceFlow_02dwuf2" style="display: block;"><g class="djs-visual"><path d="m  574,428L657,428 " style="fill: none; stroke-width: 2px; stroke: black; stroke-linejoin: round; marker-end: url('#sequenceflow-end-white-black');"/></g><polyline points="574,428 657,428 " class="djs-hit" style="fill: none; stroke-opacity: 0; stroke: white; stroke-width: 15px;"/><rect x="568" y="422" width="95" height="12" class="djs-outline" style="fill: none;"/></g></g><g class="djs-group"><g class="djs-element djs-shape" data-element-id="SequenceFlow_0n4qnqn_label" style="display: none;" transform="translate(414 406.5)"><g class="djs-visual"><text class="djs-label" style="font-family: Arial, sans-serif; font-size: 11px;"><tspan x="0" y="12.3125"/></text></g><rect x="0" y="0" width="0" height="13" class="djs-hit" style="fill: none; stroke-opacity: 0; stroke: white; stroke-width: 15px;"/><rect x="-6" y="-6" width="12" height="25" class="djs-outline" style="fill: none;"/></g></g><g class="djs-group"><g class="djs-element djs-shape" data-element-id="IntermediateThrowEvent_1c3otyr_label" style="display: block;" transform="translate(415 377)"><g class="djs-visual"><text class="djs-label" style="font-family: Arial, sans-serif; font-size: 11px;"><tspan x="8.2578125" y="12.3125">Buchhaltung </tspan><tspan x="0" y="24.625">bescheid geben</tspan></text></g><rect x="0" y="0" width="78" height="25" class="djs-hit" style="fill: none; stroke-opacity: 0; stroke: white; stroke-width: 15px;"/><rect x="-6" y="-6" width="90" height="37" class="djs-outline" style="fill: none;"/></g></g><g class="djs-group"><g class="djs-element djs-shape" data-element-id="EndEvent_0sg495w_label" style="display: none;" transform="translate(675 449)"><g class="djs-visual"><text class="djs-label" style="font-family: Arial, sans-serif; font-size: 11px;"><tspan x="0" y="12.3125"/></text></g><rect x="0" y="0" width="0" height="13" class="djs-hit" style="fill: none; stroke-opacity: 0; stroke: white; stroke-width: 15px;"/><rect x="-6" y="-6" width="12" height="25" class="djs-outline" style="fill: none;"/></g></g><g class="djs-group"><g class="djs-element djs-shape" data-element-id="StartEvent_1yxxq30_label" style="display: block;" transform="translate(164 315)"><g class="djs-visual"><text class="djs-label" style="font-family: Arial, sans-serif; font-size: 11px;"><tspan x="0" y="12.3125">Problemmeldung </tspan><tspan x="9.765625" y="24.625">eingegangen</tspan></text></g><rect x="0" y="0" width="84" height="25" class="djs-hit" style="fill: none; stroke-opacity: 0; stroke: white; stroke-width: 15px;"/><rect x="-6" y="-6" width="96" height="37" class="djs-outline" style="fill: none;"/></g></g><g class="djs-group"><g class="djs-element djs-shape" data-element-id="SequenceFlow_0pke92j_label" style="display: none;" transform="translate(257.5 275.5)"><g class="djs-visual"><text class="djs-label" style="font-family: Arial, sans-serif; font-size: 11px;"><tspan x="0" y="12.3125"/></text></g><rect x="0" y="0" width="0" height="13" class="djs-hit" style="fill: none; stroke-opacity: 0; stroke: white; stroke-width: 15px;"/><rect x="-6" y="-6" width="12" height="25" class="djs-outline" style="fill: none;"/></g></g><g class="djs-group"><g class="djs-element djs-shape" data-element-id="SequenceFlow_008x19t_label" style="display: none;" transform="translate(505 406.5)"><g class="djs-visual"><text class="djs-label" style="font-family: Arial, sans-serif; font-size: 11px;"><tspan x="0" y="12.3125"/></text></g><rect x="0" y="0" width="0" height="13" class="djs-hit" style="fill: none; stroke-opacity: 0; stroke: white; stroke-width: 15px;"/><rect x="-6" y="-6" width="12" height="25" class="djs-outline" style="fill: none;"/></g></g><g class="djs-group"><g class="djs-element djs-shape" data-element-id="SequenceFlow_02dwuf2_label" style="display: none;" transform="translate(615.5 406.5)"><g class="djs-visual"><text class="djs-label" style="font-family: Arial, sans-serif; font-size: 11px;"><tspan x="0" y="12.3125"/></text></g><rect x="0" y="0" width="0" height="13" class="djs-hit" style="fill: none; stroke-opacity: 0; stroke: white; stroke-width: 15px;"/><rect x="-6" y="-6" width="12" height="25" class="djs-outline" style="fill: none;"/></g></g><g class="djs-group"><g class="djs-element djs-shape" data-element-id="IntermediateThrowEvent_1o7icdf_label" style="display: block;" transform="translate(516 449)"><g class="djs-visual"><text class="djs-label" style="font-family: Arial, sans-serif; font-size: 11px;"><tspan x="0" y="12">Kunde bescheid </tspan><tspan x="24.15625" y="24.3125">geben</tspan></text></g><rect x="0" y="0" width="79" height="25" class="djs-hit" style="fill: none; stroke-opacity: 0; stroke: white; stroke-width: 15px;"/><rect x="-6" y="-6" width="91" height="37" class="djs-outline" style="fill: none;"/></g></g></g></g><g class="djs-group"><g class="djs-element djs-shape" data-element-id="Participant_078m2o3" style="display: block;" transform="translate(70 533)"><g class="djs-visual"><rect x="0" y="0" width="643" height="134" rx="0" ry="0" style="stroke: black; stroke-width: 2px; fill: white; fill-opacity: 0.95;"/><polyline points="30,0 30,134 " style="fill: none; stroke: black; stroke-width: 2px;"/><text class="djs-label" style="font-family: Arial, sans-serif; font-size: 12px; fill: black;" transform="matrix(-1.83697e-16 -1 1 -1.83697e-16 0 134)"><tspan x="6.9453125" y="18.5">Abteilung Buchhaltung</tspan></text></g><rect x="0" y="0" width="643" height="134" class="djs-hit" style="fill: none; stroke-opacity: 0; stroke: white; stroke-width: 15px;"/><rect x="-6" y="-6" width="655" height="146" class="djs-outline" style="fill: none;"/></g><g class="djs-children"><g class="djs-group"><g class="djs-element djs-shape" data-element-id="Task_0qxi4mg" style="display: block;" transform="translate(512 551)"><g class="djs-visual"><rect x="0" y="0" width="100" height="80" rx="10" ry="10" style="stroke: black; stroke-width: 2px; fill: white;"/><text class="djs-label" style="font-family: Arial, sans-serif; font-size: 12px; fill: black;"><tspan x="22.6484375" y="36.5">Rechnung </tspan><tspan x="23.984375" y="50.5">schreiben</tspan></text></g><rect x="0" y="0" width="100" height="80" class="djs-hit" style="fill: none; stroke-opacity: 0; stroke: white; stroke-width: 15px;"/><rect x="-6" y="-6" width="112" height="92" class="djs-outline" style="fill: none;"/></g></g><g class="djs-group"><g class="djs-element djs-shape" data-element-id="EndEvent_0lwtk1s" style="display: block;" transform="translate(657 573)"><g class="djs-visual"><circle cx="18" cy="18" r="18" style="stroke: black; stroke-width: 4px; fill: white;"/></g><rect x="0" y="0" width="36" height="36" class="djs-hit" style="fill: none; stroke-opacity: 0; stroke: white; stroke-width: 15px;"/><rect x="-6" y="-6" width="48" height="48" class="djs-outline" style="fill: none;"/></g></g><g class="djs-group"><g class="djs-element djs-shape" data-element-id="StartEvent_0r7n6cg" style="display: block;" transform="translate(436 573)"><g class="djs-visual"><circle cx="18" cy="18" r="18" style="stroke: black; stroke-width: 2px; fill: white;"/><path d="m 8.459999999999999,11.34 l 0,12.6 l 18.900000000000002,0 l 0,-12.6 z l 9.450000000000001,5.4 l 9.450000000000001,-5.4" style="fill: white; stroke-width: 1px; stroke: black;"/></g><rect x="0" y="0" width="36" height="36" class="djs-hit" style="fill: none; stroke-opacity: 0; stroke: white; stroke-width: 15px;"/><rect x="-6" y="-6" width="48" height="48" class="djs-outline" style="fill: none;"/></g></g><g class="djs-group"><g class="djs-element djs-connection" data-element-id="SequenceFlow_1rhiqcl" style="display: block;"><g class="djs-visual"><path d="m  472,591L512,591 " style="fill: none; stroke-width: 2px; stroke: black; stroke-linejoin: round; marker-end: url('#sequenceflow-end-white-black');"/></g><polyline points="472,591 512,591 " class="djs-hit" style="fill: none; stroke-opacity: 0; stroke: white; stroke-width: 15px;"/><rect x="466" y="585" width="52" height="12" class="djs-outline" style="fill: none;"/></g></g><g class="djs-group"><g class="djs-element djs-connection" data-element-id="SequenceFlow_1paj596" style="display: block;"><g class="djs-visual"><path d="m  612,591L657,591 " style="fill: none; stroke-width: 2px; stroke: black; stroke-linejoin: round; marker-end: url('#sequenceflow-end-white-black');"/></g><polyline points="612,591 657,591 " class="djs-hit" style="fill: none; stroke-opacity: 0; stroke: white; stroke-width: 15px;"/><rect x="606" y="585" width="57" height="12" class="djs-outline" style="fill: none;"/></g></g><g class="djs-group"><g class="djs-element djs-shape" data-element-id="EndEvent_1683arz_label" style="display: none;" transform="translate(631 612)"><g class="djs-visual"><text class="djs-label" style="font-family: Arial, sans-serif; font-size: 11px;"><tspan x="0" y="12.3125"/></text></g><rect x="0" y="0" width="0" height="13" class="djs-hit" style="fill: none; stroke-opacity: 0; stroke: white; stroke-width: 15px;"/><rect x="-6" y="-6" width="12" height="25" class="djs-outline" style="fill: none;"/></g></g><g class="djs-group"><g class="djs-element djs-shape" data-element-id="SequenceFlow_1paj596_label" style="display: none;" transform="translate(634.5 569.5)"><g class="djs-visual"><text class="djs-label" style="font-family: Arial, sans-serif; font-size: 11px;"><tspan x="0" y="12.3125"/></text></g><rect x="0" y="0" width="0" height="13" class="djs-hit" style="fill: none; stroke-opacity: 0; stroke: white; stroke-width: 15px;"/><rect x="-6" y="-6" width="12" height="25" class="djs-outline" style="fill: none;"/></g></g><g class="djs-group"><g class="djs-element djs-shape" data-element-id="SequenceFlow_1rhiqcl_label" style="display: none;" transform="translate(492 569.5)"><g class="djs-visual"><text class="djs-label" style="font-family: Arial, sans-serif; font-size: 11px;"><tspan x="0" y="12.3125"/></text></g><rect x="0" y="0" width="0" height="13" class="djs-hit" style="fill: none; stroke-opacity: 0; stroke: white; stroke-width: 15px;"/><rect x="-6" y="-6" width="12" height="25" class="djs-outline" style="fill: none;"/></g></g><g class="djs-group"><g class="djs-element djs-shape" data-element-id="StartEvent_1b9w47e_label" style="display: block;" transform="translate(414 612)"><g class="djs-visual"><text class="djs-label" style="font-family: Arial, sans-serif; font-size: 11px;"><tspan x="0" y="12">Arbeiten wurden </tspan><tspan x="9.1796875" y="24.3125">durchgeführt</tspan></text></g><rect x="0" y="0" width="81" height="25" class="djs-hit" style="fill: none; stroke-opacity: 0; stroke: white; stroke-width: 15px;"/><rect x="-6" y="-6" width="93" height="37" class="djs-outline" style="fill: none;"/></g></g></g></g><g class="djs-group"><g class="djs-element djs-shape" data-element-id="Participant_1x4f9no" style="display: block;" transform="translate(70 138)"><g class="djs-visual"><rect x="0" y="0" width="640" height="60" rx="0" ry="0" style="stroke: black; stroke-width: 2px; fill: white; fill-opacity: 0.95;"/><text class="djs-label" style="font-family: Arial, sans-serif; font-size: 12px; fill: black;"><tspan x="302.65625" y="33.5">Kunde</tspan></text></g><rect x="0" y="0" width="640" height="60" class="djs-hit" style="fill: none; stroke-opacity: 0; stroke: white; stroke-width: 15px;"/><rect x="-6" y="-6" width="652" height="72" class="djs-outline" style="fill: none;"/></g></g><g class="djs-group"><g class="djs-element djs-connection" data-element-id="MessageFlow_0tm552i" style="display: block;"><g class="djs-visual"><path d="m  206,198L205,279 " style="fill: none; stroke-width: 1.5px; stroke: black; marker-end: url('#messageflow-end-white-black'); marker-start: url('#messageflow-start-white-black'); stroke-dasharray: 10, 12; stroke-linecap: round; stroke-linejoin: round;"/></g><polyline points="206,198 205,279 " class="djs-hit" style="fill: none; stroke-opacity: 0; stroke: white; stroke-width: 15px;"/><rect x="199" y="192" width="13" height="93" class="djs-outline" style="fill: none;"/></g></g><g class="djs-group"><g class="djs-element djs-connection" data-element-id="MessageFlow_1rlyxmt" style="display: block;"><g class="djs-visual"><path d="m  556,410L556,201 " style="fill: none; stroke-width: 1.5px; stroke: black; marker-end: url('#messageflow-end-white-black'); marker-start: url('#messageflow-start-white-black'); stroke-dasharray: 10, 12; stroke-linecap: round; stroke-linejoin: round;"/></g><polyline points="556,410 556,201 " class="djs-hit" style="fill: none; stroke-opacity: 0; stroke: white; stroke-width: 15px;"/><rect x="550" y="195" width="12" height="221" class="djs-outline" style="fill: none;"/></g></g><g class="djs-group"><g class="djs-element djs-connection" data-element-id="MessageFlow_1da28da" style="display: block;"><g class="djs-visual"><path d="m  454,446L454,510 L454,510 L454,573 " style="fill: none; stroke-width: 1.5px; stroke: black; marker-end: url('#messageflow-end-white-black'); marker-start: url('#messageflow-start-white-black'); stroke-dasharray: 10, 12; stroke-linecap: round; stroke-linejoin: round;"/></g><polyline points="454,446 454,510 454,510 454,573 " class="djs-hit" style="fill: none; stroke-opacity: 0; stroke: white; stroke-width: 15px;"/><rect x="448" y="440" width="12" height="139" class="djs-outline" style="fill: none;"/></g></g><g class="djs-group"><g class="djs-element djs-shape" data-element-id="MessageFlow_1da28da_label" style="display: none;" transform="translate(469 503.5)"><g class="djs-visual"><text class="djs-label" style="font-family: Arial, sans-serif; font-size: 11px;"><tspan x="0" y="12.3125"/></text></g><rect x="0" y="0" width="0" height="13" class="djs-hit" style="fill: none; stroke-opacity: 0; stroke: white; stroke-width: 15px;"/><rect x="-6" y="-6" width="12" height="25" class="djs-outline" style="fill: none;"/></g></g><g class="djs-group"><g class="djs-element djs-shape" data-element-id="MessageFlow_1rlyxmt_label" style="display: none;" transform="translate(571 299)"><g class="djs-visual"><text class="djs-label" style="font-family: Arial, sans-serif; font-size: 11px;"><tspan x="0" y="12.3125"/></text></g><rect x="0" y="0" width="0" height="13" class="djs-hit" style="fill: none; stroke-opacity: 0; stroke: white; stroke-width: 15px;"/><rect x="-6" y="-6" width="12" height="25" class="djs-outline" style="fill: none;"/></g></g><g class="djs-group"><g class="djs-element djs-shape" data-element-id="MessageFlow_0tm552i_label" style="display: none;" transform="translate(205.5 217)"><g class="djs-visual"><text class="djs-label" style="font-family: Arial, sans-serif; font-size: 11px;"><tspan x="0" y="12.3125"/></text></g><rect x="0" y="0" width="0" height="13" class="djs-hit" style="fill: none; stroke-opacity: 0; stroke: white; stroke-width: 15px;"/><rect x="-6" y="-6" width="12" height="25" class="djs-outline" style="fill: none;"/></g></g><g class="djs-drag-group" style="pointer-events: none;" transform="translate(90 14)"/><g class="djs-drag-group" style="pointer-events: none;" transform="translate(-23 5)"/><g class="djs-drag-group" style="pointer-events: none;" transform="translate(-6 0)"/><g class="djs-drag-group" style="pointer-events: none;" transform="translate(100 100)"/><g class="djs-drag-group" style="pointer-events: none;" transform="translate(-153 4)"/><g class="djs-drag-group" style="pointer-events: none;" transform="translate(0 -23)"/><g class="djs-drag-group" style="pointer-events: none;" transform="translate(0 88)"/><g class="djs-drag-group" style="pointer-events: none;" transform="translate(0 -34)"/><g class="djs-drag-group" style="pointer-events: none;" transform="translate(110 0)"/><g class="djs-drag-group" style="pointer-events: none;" transform="translate(0 41)"/><g class="djs-drag-group" style="pointer-events: none;" transform="translate(579 -313)"/><g class="djs-drag-group" style="pointer-events: none;" transform="translate(40 0)"/><g class="djs-drag-group" style="pointer-events: none;" transform="translate(-681 288)"/><g class="djs-drag-group" style="pointer-events: none;" transform="translate(8 0)"/><g class="djs-drag-group" style="pointer-events: none;" transform="translate(50 0)"/><g class="djs-drag-group" style="pointer-events: none;" transform="translate(127 0)"/><g class="djs-drag-group" style="pointer-events: none;" transform="translate(91 0)"/><g class="djs-drag-group" style="pointer-events: none;" transform="translate(-1 0)"/><g class="djs-drag-group" style="pointer-events: none;" transform="translate(47 0)"/><g class="djs-drag-group" style="pointer-events: none;" transform="translate(156 -1)"/><g class="djs-drag-group" style="pointer-events: none;" transform="translate(-72 0)"/><g class="djs-drag-group" style="pointer-events: none;" transform="translate(-1 0)"/><g class="djs-drag-group" style="pointer-events: none;" transform="translate(-66 0)"/><g class="djs-drag-group" style="pointer-events: none;" transform="translate(-155 0)"/><g class="djs-drag-group" style="pointer-events: none;" transform="translate(33 0)"/><g class="djs-drag-group" style="pointer-events: none;" transform="translate(-33 0)"/><g class="djs-drag-group" style="pointer-events: none;" transform="translate(-128 0)"/><g class="djs-drag-group" style="pointer-events: none;" transform="translate(-184 0)"/><g class="djs-drag-group" style="pointer-events: none;" transform="translate(0 13)"/><g class="djs-drag-group" style="pointer-events: none;" transform="translate(-4 106)"/><g class="djs-drag-group" style="pointer-events: none;" transform="translate(7 -38)"/><g class="djs-drag-group" style="pointer-events: none;" transform="translate(-44 1)"/><g class="djs-drag-group" style="pointer-events: none;" transform="translate(0 0)"/><g class="djs-drag-group" style="pointer-events: none;" transform="translate(-40 0)"/><g class="djs-drag-group" style="pointer-events: none;" transform="translate(-9 -1)"/><g class="djs-drag-group" style="pointer-events: none;" transform="translate(-10 0)"/><g class="djs-drag-group" style="pointer-events: none;" transform="translate(-25 0)"/><g class="djs-drag-group" style="pointer-events: none;" transform="translate(-26 1)"/><g class="djs-drag-group" style="pointer-events: none;" transform="translate(0 -6)"/><g class="djs-drag-group" style="pointer-events: none;" transform="translate(4 0)"/><g class="djs-drag-group" style="pointer-events: none;" transform="translate(-140 -9)"/><g class="djs-drag-group" style="pointer-events: none;" transform="translate(71 24)"/><g class="djs-drag-group" style="pointer-events: none;" transform="translate(33 24)"/><g class="djs-drag-group" style="pointer-events: none;" transform="translate(32 0)"/><g class="djs-drag-group" style="pointer-events: none;" transform="translate(18 0)"/><g class="djs-drag-group" style="pointer-events: none;" transform="translate(9 0)"/><g class="djs-drag-group" style="pointer-events: none;" transform="translate(-50 0)"/><g class="djs-drag-group" style="pointer-events: none;" transform="translate(-73 0)"/><g class="djs-drag-group" style="pointer-events: none;" transform="translate(0 0)"/><g class="djs-drag-group" style="pointer-events: none;" transform="translate(18 0)"/><g class="djs-drag-group" style="pointer-events: none;" transform="translate(-68 0)"/><g class="djs-drag-group" style="pointer-events: none;" transform="translate(31 0)"/><g class="djs-drag-group" style="pointer-events: none;" transform="translate(29 0)"/><g class="djs-drag-group" style="pointer-events: none;" transform="translate(31 0)"/><g class="djs-drag-group" style="pointer-events: none;" transform="translate(0 -40)"/><g class="djs-drag-group" style="pointer-events: none;" transform="translate(-45 0)"/><g class="djs-drag-group" style="pointer-events: none;" transform="translate(-91 0)"/><g class="djs-drag-group" style="pointer-events: none;" transform="translate(28 0)"/><g class="djs-drag-group" style="pointer-events: none;" transform="translate(-165 2)"/><g class="djs-drag-group" style="pointer-events: none;" transform="translate(-71 4)"/><g class="djs-drag-group" style="pointer-events: none;" transform="translate(-38 0)"/><g class="djs-drag-group" style="pointer-events: none;" transform="translate(30 0)"/><g class="djs-drag-group" style="pointer-events: none;" transform="translate(-8 0)"/><g class="djs-drag-group" style="pointer-events: none;" transform="translate(-47 0)"/><g class="djs-drag-group" style="pointer-events: none;" transform="translate(10 1)"/><g class="djs-drag-group" style="pointer-events: none;" transform="translate(16 -5)"/><g class="djs-drag-group" style="pointer-events: none;" transform="translate(-21 0)"/><g class="djs-drag-group" style="pointer-events: none;" transform="translate(-14 0)"/><g class="djs-drag-group" style="pointer-events: none;" transform="translate(0 9)"/><g class="djs-drag-group" style="pointer-events: none;" transform="translate(0 9)"/><g class="djs-drag-group" style="pointer-events: none;" transform="translate(47 0)"/><g class="djs-drag-group" style="pointer-events: none;" transform="translate(0 40)"/><g class="djs-drag-group" style="pointer-events: none;" transform="translate(0 0)"/><g class="djs-drag-group" style="pointer-events: none;" transform="translate(2 14)"/><g class="djs-drag-group" style="pointer-events: none;" transform="translate(56 -1)"/><g class="djs-drag-group" style="pointer-events: none;" transform="translate(-6 0)"/><g class="djs-drag-group" style="pointer-events: none;" transform="translate(-7 2)"/><g class="djs-drag-group" style="pointer-events: none;" transform="translate(3 -1)"/><g class="djs-drag-group" style="pointer-events: none;" transform="translate(-1 0)"/><g class="djs-drag-group" style="pointer-events: none;" transform="translate(-70 -34)"/><g class="djs-drag-group" style="pointer-events: none;" transform="translate(9 0)"/><g class="djs-drag-group" style="pointer-events: none;" transform="translate(92 0)"/><g class="djs-drag-group" style="pointer-events: none;" transform="translate(90 0)"/><g class="djs-drag-group" style="pointer-events: none;" transform="translate(0 -71)"/><g class="djs-drag-group" style="pointer-events: none;" transform="translate(194 0)"/><g class="djs-drag-group" style="pointer-events: none;" transform="translate(-28 0)"/><g class="djs-drag-group" style="pointer-events: none;" transform="translate(-44 0)"/><g class="djs-drag-group" style="pointer-events: none;" transform="translate(19 0)"/><g class="djs-drag-group" style="pointer-events: none;" transform="translate(0 0)"/><g class="djs-drag-group" style="pointer-events: none;" transform="translate(-32 0)"/><g class="djs-drag-group" style="pointer-events: none;" transform="translate(-8 0)"/><g class="djs-drag-group" style="pointer-events: none;" transform="translate(-36 0)"/><g class="djs-drag-group" style="pointer-events: none;" transform="translate(0 0)"/><g class="djs-drag-group" style="pointer-events: none;" transform="translate(0 0)"/><g class="djs-drag-group" style="pointer-events: none;" transform="translate(8 0)"/><g class="djs-drag-group" style="pointer-events: none;" transform="translate(-130 0)"/><g class="djs-drag-group" style="pointer-events: none;" transform="translate(-108 0)"/><g class="djs-drag-group" style="pointer-events: none;" transform="translate(-11 0)"/><g class="djs-drag-group" style="pointer-events: none;" transform="translate(-9 0)"/><g class="djs-drag-group" style="pointer-events: none;" transform="translate(-54 0)"/><g class="djs-drag-group" style="pointer-events: none;" transform="translate(18 0)"/><g class="djs-drag-group" style="pointer-events: none;" transform="translate(20 0)"/><g class="djs-drag-group" style="pointer-events: none;" transform="translate(8 0)"/><g class="djs-drag-group" style="pointer-events: none;" transform="translate(8 0)"/><g class="djs-drag-group" style="pointer-events: none;" transform="translate(0 -72)"/><g class="djs-drag-group" style="pointer-events: none;" transform="translate(36 0)"/><g class="djs-drag-group" style="pointer-events: none;" transform="translate(8 0)"/><g class="djs-drag-group" style="pointer-events: none;" transform="translate(18 0)"/><g class="djs-drag-group" style="pointer-events: none;" transform="translate(-2 15)"/></svg>