<?xml version="1.0" encoding="utf-8"?>
<!-- created with bpmn-js / http://bpmn.io -->
<!DOCTYPE svg PUBLIC "-//W3C//DTD SVG 1.1//EN" "http://www.w3.org/Graphics/SVG/1.1/DTD/svg11.dtd">
<svg xmlns="http://www.w3.org/2000/svg" xmlns:xlink="http://www.w3.org/1999/xlink" width="769" height="239" viewBox="135 158 769 239" version="1.1"><defs><marker id="sequenceflow-end-white-black-0nyww3sz0r8hl2b4o8o2y01n6" viewBox="0 0 20 20" refX="11" refY="10" markerWidth="10" markerHeight="10" orient="auto"><path d="M 1 5 L 11 10 L 1 15 Z" style="fill: black; stroke-width: 1px; stroke-linecap: round; stroke-dasharray: 10000, 1; stroke: black;"/></marker><marker id="sequenceflow-end-#FFCDD2-#E53935-0nyww3sz0r8hl2b4o8o2y01n6" viewBox="0 0 20 20" refX="11" refY="10" markerWidth="10" markerHeight="10" orient="auto"><path d="M 1 5 L 11 10 L 1 15 Z" style="fill: rgb(229, 57, 53); stroke-width: 1px; stroke-linecap: round; stroke-dasharray: 10000, 1; stroke: rgb(229, 57, 53);"/></marker><marker id="sequenceflow-end-#C8E6C9-#43A047-0nyww3sz0r8hl2b4o8o2y01n6" viewBox="0 0 20 20" refX="11" refY="10" markerWidth="10" markerHeight="10" orient="auto"><path d="M 1 5 L 11 10 L 1 15 Z" style="fill: rgb(67, 160, 71); stroke-width: 1px; stroke-linecap: round; stroke-dasharray: 10000, 1; stroke: rgb(67, 160, 71);"/></marker></defs><g class="djs-group"><g class="djs-element djs-shape" data-element-id="Task_0wi0wt4" style="display: block;" transform="translate(141 164)"><g class="djs-visual"><rect x="0" y="0" width="100" height="80" rx="10" ry="10" style="stroke: rgb(229, 57, 53); stroke-width: 2px; fill: rgb(255, 205, 210);"/><text class="djs-label" style="font-family: Arial, sans-serif; font-size: 12px; fill: rgb(229, 57, 53);"><tspan x="50" y="43.37890625"/></text></g><rect x="0" y="0" width="100" height="80" class="djs-hit" style="fill: none; stroke-opacity: 0; stroke: white; stroke-width: 15px;"/><rect x="-6" y="-6" width="112" height="92" class="djs-outline" style="fill: none;"/></g></g><g class="djs-group"><g class="djs-element djs-shape" data-element-id="Task_0a001fe" style="display: block;" transform="translate(349 164)"><g class="djs-visual"><rect x="0" y="0" width="100" height="80" rx="10" ry="10" style="stroke: rgb(229, 57, 53); stroke-width: 2px; fill: rgb(255, 205, 210);"/><text class="djs-label" style="font-family: Arial, sans-serif; font-size: 12px; fill: rgb(229, 57, 53);"><tspan x="50" y="43.37890625"/></text></g><rect x="0" y="0" width="100" height="80" class="djs-hit" style="fill: none; stroke-opacity: 0; stroke: white; stroke-width: 15px;"/><rect x="-6" y="-6" width="112" height="92" class="djs-outline" style="fill: none;"/></g></g><g class="djs-group"><g class="djs-element djs-shape" data-element-id="Task_0jiz9yw" style="display: block;" transform="translate(141 311)"><g class="djs-visual"><rect x="0" y="0" width="100" height="80" rx="10" ry="10" style="stroke: rgb(229, 57, 53); stroke-width: 2px; fill: rgb(255, 205, 210);"/><text class="djs-label" style="font-family: Arial, sans-serif; font-size: 12px; fill: rgb(229, 57, 53);"><tspan x="50" y="43.37890625"/></text></g><rect x="0" y="0" width="100" height="80" class="djs-hit" style="fill: none; stroke-opacity: 0; stroke: white; stroke-width: 15px;"/><rect x="-6" y="-6" width="112" height="92" class="djs-outline" style="fill: none;"/></g></g><g class="djs-group"><g class="djs-element djs-shape" data-element-id="Task_15nw39x" style="display: block;" transform="translate(533 164)"><g class="djs-visual"><rect x="0" y="0" width="100" height="80" rx="10" ry="10" style="stroke: rgb(67, 160, 71); stroke-width: 2px; fill: rgb(200, 230, 201);"/><text class="djs-label" style="font-family: Arial, sans-serif; font-size: 12px; fill: rgb(67, 160, 71);"><tspan x="50" y="43.37890625"/></text></g><rect x="0" y="0" width="100" height="80" class="djs-hit" style="fill: none; stroke-opacity: 0; stroke: white; stroke-width: 15px;"/><rect x="-6" y="-6" width="112" height="92" class="djs-outline" style="fill: none;"/></g></g><g class="djs-group"><g class="djs-element djs-shape" data-element-id="Task_1rco1dm" style="display: block;" transform="translate(533 311)"><g class="djs-visual"><rect x="0" y="0" width="100" height="80" rx="10" ry="10" style="stroke: rgb(67, 160, 71); stroke-width: 2px; fill: rgb(200, 230, 201);"/><text class="djs-label" style="font-family: Arial, sans-serif; font-size: 12px; fill: rgb(67, 160, 71);"><tspan x="50" y="43.37890625"/></text></g><rect x="0" y="0" width="100" height="80" class="djs-hit" style="fill: none; stroke-opacity: 0; stroke: white; stroke-width: 15px;"/><rect x="-6" y="-6" width="112" height="92" class="djs-outline" style="fill: none;"/></g></g><g class="djs-group"><g class="djs-element djs-shape" data-element-id="ExclusiveGateway_1ytsutf" style="display: block;" transform="translate(692 179)"><g class="djs-visual"><polygon points="25,0 50,25 25,50 0,25" style="stroke: rgb(67, 160, 71); stroke-width: 2px; fill: rgb(200, 230, 201);"/><path d="m 16,15 7.42857142857143,9.714285714285715 -7.42857142857143,9.714285714285715 3.428571428571429,0 5.714285714285715,-7.464228571428572 5.714285714285715,7.464228571428572 3.428571428571429,0 -7.42857142857143,-9.714285714285715 7.42857142857143,-9.714285714285715 -3.428571428571429,0 -5.714285714285715,7.464228571428572 -5.714285714285715,-7.464228571428572 -3.428571428571429,0 z" style="fill: rgb(67, 160, 71); stroke-width: 1px; stroke: rgb(67, 160, 71);"/></g><rect x="0" y="0" width="50" height="50" class="djs-hit" style="fill: none; stroke-opacity: 0; stroke: white; stroke-width: 15px;"/><rect x="-6" y="-6" width="62" height="62" class="djs-outline" style="fill: none;"/></g></g><g class="djs-group"><g class="djs-element djs-shape" data-element-id="Task_0zvh90w" style="display: block;" transform="translate(798 164)"><g class="djs-visual"><rect x="0" y="0" width="100" height="80" rx="10" ry="10" style="stroke: rgb(67, 160, 71); stroke-width: 2px; fill: rgb(200, 230, 201);"/><text class="djs-label" style="font-family: Arial, sans-serif; font-size: 12px; fill: rgb(67, 160, 71);"><tspan x="50" y="43.37890625"/></text></g><rect x="0" y="0" width="100" height="80" class="djs-hit" style="fill: none; stroke-opacity: 0; stroke: white; stroke-width: 15px;"/><rect x="-6" y="-6" width="112" height="92" class="djs-outline" style="fill: none;"/></g></g><g class="djs-group"><g class="djs-element djs-connection" data-element-id="SequenceFlow_0insw1l" style="display: block;"><g class="djs-visual"><path d="m  241,204L349,204 " style="fill: none; stroke-width: 2px; stroke: rgb(229, 57, 53); stroke-linejoin: round; marker-end: url('#sequenceflow-end-#FFCDD2-#E53935-0nyww3sz0r8hl2b4o8o2y01n6');"/></g><polyline points="241,204 349,204 " class="djs-hit" style="fill: none; stroke-opacity: 0; stroke: white; stroke-width: 15px;"/><rect x="235" y="198" width="120" height="12" class="djs-outline" style="fill: none;"/></g></g><g class="djs-group"><g class="djs-element djs-shape" data-element-id="SequenceFlow_0insw1l_label" style="display: none;" transform="translate(295 182)"><g class="djs-visual"><text class="djs-label" style="font-family: Arial, sans-serif; font-size: 11px;"><tspan x="0" y="12.5"/></text></g><rect x="0" y="0" width="0" height="13" class="djs-hit" style="fill: none; stroke-opacity: 0; stroke: white; stroke-width: 15px;"/><rect x="-6" y="-6" width="12" height="25" class="djs-outline" style="fill: none;"/></g></g><g class="djs-group"><g class="djs-element djs-connection" data-element-id="SequenceFlow_1gno48f" style="display: block;"><g class="djs-visual"><path d="m  241,351L295,351 L295,204 L349,204 " style="fill: none; stroke-width: 2px; stroke: rgb(229, 57, 53); stroke-linejoin: round; marker-end: url('#sequenceflow-end-#FFCDD2-#E53935-0nyww3sz0r8hl2b4o8o2y01n6');"/></g><polyline points="241,351 295,351 295,204 349,204 " class="djs-hit" style="fill: none; stroke-opacity: 0; stroke: white; stroke-width: 15px;"/><rect x="235" y="198" width="120" height="159" class="djs-outline" style="fill: none;"/></g></g><g class="djs-group"><g class="djs-element djs-shape" data-element-id="SequenceFlow_1gno48f_label" style="display: none;" transform="translate(310 270.5)"><g class="djs-visual"><text class="djs-label" style="font-family: Arial, sans-serif; font-size: 11px;"><tspan x="0" y="12.5"/></text></g><rect x="0" y="0" width="0" height="13" class="djs-hit" style="fill: none; stroke-opacity: 0; stroke: white; stroke-width: 15px;"/><rect x="-6" y="-6" width="12" height="25" class="djs-outline" style="fill: none;"/></g></g><g class="djs-group"><g class="djs-element djs-shape" data-element-id="ExclusiveGateway_1ytsutf_label" style="display: none;" transform="translate(717 232)"><g class="djs-visual"><text class="djs-label" style="font-family: Arial, sans-serif; font-size: 11px;"><tspan x="0" y="12.5"/></text></g><rect x="0" y="0" width="0" height="13" class="djs-hit" style="fill: none; stroke-opacity: 0; stroke: white; stroke-width: 15px;"/><rect x="-6" y="-6" width="12" height="25" class="djs-outline" style="fill: none;"/></g></g><g class="djs-group"><g class="djs-element djs-connection" data-element-id="SequenceFlow_0sgpccv" style="display: block;"><g class="djs-visual"><path d="m  633,351L717,351 L717,229 " style="fill: none; stroke-width: 2px; stroke: rgb(67, 160, 71); stroke-linejoin: round; marker-end: url('#sequenceflow-end-#C8E6C9-#43A047-0nyww3sz0r8hl2b4o8o2y01n6');"/></g><polyline points="633,351 717,351 717,229 " class="djs-hit" style="fill: none; stroke-opacity: 0; stroke: white; stroke-width: 15px;"/><rect x="627" y="223" width="96" height="134" class="djs-outline" style="fill: none;"/></g></g><g class="djs-group"><g class="djs-element djs-shape" data-element-id="SequenceFlow_0sgpccv_label" style="display: none;" transform="translate(675 329)"><g class="djs-visual"><text class="djs-label" style="font-family: Arial, sans-serif; font-size: 11px;"><tspan x="0" y="12.5"/></text></g><rect x="0" y="0" width="0" height="13" class="djs-hit" style="fill: none; stroke-opacity: 0; stroke: white; stroke-width: 15px;"/><rect x="-6" y="-6" width="12" height="25" class="djs-outline" style="fill: none;"/></g></g><g class="djs-group"><g class="djs-element djs-connection" data-element-id="SequenceFlow_1dlba0x" style="display: block;"><g class="djs-visual"><path d="m  742,204L798,204 " style="fill: none; stroke-width: 2px; stroke: rgb(67, 160, 71); stroke-linejoin: round; marker-end: url('#sequenceflow-end-#C8E6C9-#43A047-0nyww3sz0r8hl2b4o8o2y01n6');"/></g><polyline points="742,204 798,204 " class="djs-hit" style="fill: none; stroke-opacity: 0; stroke: white; stroke-width: 15px;"/><rect x="736" y="198" width="68" height="12" class="djs-outline" style="fill: none;"/></g></g><g class="djs-group"><g class="djs-element djs-connection" data-element-id="SequenceFlow_1nd19bp" style="display: block;"><g class="djs-visual"><path d="m  633,204L692,204 " style="fill: none; stroke-width: 2px; stroke: rgb(67, 160, 71); stroke-linejoin: round; marker-end: url('#sequenceflow-end-#C8E6C9-#43A047-0nyww3sz0r8hl2b4o8o2y01n6');"/></g><polyline points="633,204 692,204 " class="djs-hit" style="fill: none; stroke-opacity: 0; stroke: white; stroke-width: 15px;"/><rect x="627" y="198" width="71" height="12" class="djs-outline" style="fill: none;"/></g></g><g class="djs-group"><g class="djs-element djs-shape" data-element-id="SequenceFlow_1nd19bp_label" style="display: none;" transform="translate(662.5 182)"><g class="djs-visual"><text class="djs-label" style="font-family: Arial, sans-serif; font-size: 11px;"><tspan x="0" y="12.5"/></text></g><rect x="0" y="0" width="0" height="13" class="djs-hit" style="fill: none; stroke-opacity: 0; stroke: white; stroke-width: 15px;"/><rect x="-6" y="-6" width="12" height="25" class="djs-outline" style="fill: none;"/></g></g><g class="djs-group"><g class="djs-element djs-shape" data-element-id="SequenceFlow_1dlba0x_label" style="display: none;" transform="translate(770 182.5)"><g class="djs-visual"><text class="djs-label" style="font-family: Arial, sans-serif; font-size: 11px;"><tspan x="0" y="12.5"/></text></g><rect x="0" y="0" width="0" height="13" class="djs-hit" style="fill: none; stroke-opacity: 0; stroke: white; stroke-width: 15px;"/><rect x="-6" y="-6" width="12" height="25" class="djs-outline" style="fill: none;"/></g></g><g class="djs-drag-group" style="pointer-events: none;" transform="translate(0 84)"/><g class="djs-drag-group" style="pointer-events: none;" transform="translate(30 0)"/><g class="djs-drag-group" style="pointer-events: none;" transform="translate(-19 0)"/></svg>