<?xml version="1.0" encoding="utf-8"?>
<!-- created with bpmn-js / http://bpmn.io -->
<!DOCTYPE svg PUBLIC "-//W3C//DTD SVG 1.1//EN" "http://www.w3.org/Graphics/SVG/1.1/DTD/svg11.dtd">
<svg xmlns="http://www.w3.org/2000/svg" xmlns:xlink="http://www.w3.org/1999/xlink" width="112" height="92" viewBox="506 173 112 92" version="1.1"><g class="djs-group"><g class="djs-element djs-shape" data-element-id="Task_0bv7z2k" style="display: block;" transform="translate(512 179)"><g class="djs-visual"><rect x="0" y="0" width="100" height="80" rx="10" ry="10" style="stroke: black; stroke-width: 5px; fill: white; fill-opacity: 0.95;"/><text class="djs-label" style="font-family: Arial, sans-serif; font-size: 12px; fill: black;"><tspan x="50" y="43.37890625"/></text><rect x="0" y="0" width="14" height="14" rx="0" ry="0" style="stroke: black; stroke-width: 1px; fill: white;" transform="translate(42.5 60)"/><path d="m42.5,60 m 7,2 l 0,10 m -5,-5 l 10,0" data-marker="sub-process" style="fill: white; stroke-width: 2px; stroke: black;"/></g><rect x="0" y="0" width="100" height="80" class="djs-hit" style="fill: none; stroke-opacity: 0; stroke: white; stroke-width: 15px;"/><rect x="-6" y="-6" width="112" height="92" class="djs-outline" style="fill: none;"/></g></g><g class="djs-drag-group" style="pointer-events: none;" transform="translate(-202 -8)"/><g class="djs-drag-group" style="pointer-events: none;" transform="translate(-16 7)"/><g class="djs-drag-group" style="pointer-events: none;" transform="translate(-3 9)"/><g class="djs-drag-group" style="pointer-events: none;" transform="translate(119 -245)"/><g class="djs-drag-group" style="pointer-events: none;" transform="translate(217 -329)"/><g class="djs-drag-group" style="pointer-events: none;" transform="translate(5 0)"/><g class="djs-drag-group" style="pointer-events: none;" transform="translate(228 -137)"/><g class="djs-drag-group" style="pointer-events: none;" transform="translate(-25 0)"/><g class="djs-drag-group" style="pointer-events: none;" transform="translate(-29 0)"/><g class="djs-drag-group" style="pointer-events: none;" transform="translate(-15 0)"/><g class="djs-drag-group" style="pointer-events: none;" transform="translate(-1 -13)"/><g class="djs-drag-group" style="pointer-events: none;" transform="translate(0 8)"/><g class="djs-drag-group" style="pointer-events: none;" transform="translate(221 -231)"/><g class="djs-drag-group" style="pointer-events: none;" transform="translate(370 -313)"/><g class="djs-drag-group" style="pointer-events: none;" transform="translate(262 -167)"/><g class="djs-drag-group" style="pointer-events: none;" transform="translate(19 0)"/><g class="djs-drag-group" style="pointer-events: none;" transform="translate(-122 -23)"/><g class="djs-drag-group" style="pointer-events: none;" transform="translate(36 0)"/><g class="djs-drag-group" style="pointer-events: none;" transform="translate(-21 0)"/><g class="djs-drag-group" style="pointer-events: none;" transform="translate(-21 0)"/></svg>