<?xml version="1.0" encoding="utf-8"?>
<!-- created with bpmn-js / http://bpmn.io -->
<!DOCTYPE svg PUBLIC "-//W3C//DTD SVG 1.1//EN" "http://www.w3.org/Graphics/SVG/1.1/DTD/svg11.dtd">
<svg xmlns="http://www.w3.org/2000/svg" xmlns:xlink="http://www.w3.org/1999/xlink" width="62" height="62" viewBox="2.5730600357055664 1.604949951171875 62 62" version="1.1"><g class="djs-group"><g class="djs-element djs-shape" data-element-id="ExclusiveGateway_18hcn39" style="display: block;" transform="translate(8.57306 7.60495)"><g class="djs-visual"><polygon points="25,0 50,25 25,50 0,25" style="stroke: black; stroke-width: 2px; fill: white;"/><path d="m 16,15 7.42857142857143,9.714285714285715 -7.42857142857143,9.714285714285715 3.428571428571429,0 5.714285714285715,-7.464228571428572 5.714285714285715,7.464228571428572 3.428571428571429,0 -7.42857142857143,-9.714285714285715 7.42857142857143,-9.714285714285715 -3.428571428571429,0 -5.714285714285715,7.464228571428572 -5.714285714285715,-7.464228571428572 -3.428571428571429,0 z" style="fill: black; stroke-width: 1px; stroke: black;"/></g><rect x="0" y="0" width="50" height="50" class="djs-hit" style="fill: none; stroke-opacity: 0; stroke: white; stroke-width: 15px;"/><rect x="-6" y="-6" width="62" height="62" class="djs-outline" style="fill: none;"/></g></g><g class="djs-group"><g class="djs-element djs-shape" data-element-id="ExclusiveGateway_18hcn39_label" style="display: none;" transform="translate(33.5731 60.6049)"><g class="djs-visual"><text class="djs-label" style="font-family: Arial, sans-serif; font-size: 11px;"><tspan x="0" y="12.3125"/></text></g><rect x="0" y="0" width="0" height="13" class="djs-hit" style="fill: none; stroke-opacity: 0; stroke: white; stroke-width: 15px;"/><rect x="-6" y="-6" width="12" height="25" class="djs-outline" style="fill: none;"/></g></g><g class="djs-drag-group" style="pointer-events: none;" transform="translate(-363 -237)"/><g class="djs-drag-group" style="pointer-events: none;" transform="translate(-9 -10)"/><g class="djs-drag-group" style="pointer-events: none;" transform="translate(-3 -2)"/><g class="djs-drag-group" style="pointer-events: none;" transform="translate(-2 -10)"/><g class="djs-drag-group" style="pointer-events: none;" transform="translate(-4 -5)"/><g class="djs-drag-group" style="pointer-events: none;" transform="translate(350 315)"/><g class="djs-drag-group" style="pointer-events: none;" transform="translate(-265 -246)"/><g class="djs-drag-group" style="pointer-events: none;" transform="translate(-100 -80)"/><g class="djs-drag-group" style="pointer-events: none;" transform="translate(12 8)"/><g class="djs-drag-group" style="pointer-events: none;" transform="translate(-6 2)"/><g class="djs-drag-group" style="pointer-events: none;" transform="translate(1 -5)"/><g class="djs-drag-group" style="pointer-events: none;" transform="translate(2 3)"/><g class="djs-drag-group" style="pointer-events: none;" transform="translate(-50 -16)"/><g class="djs-drag-group" style="pointer-events: none;" transform="translate(-3 1)"/></svg>